<svg xmlns="http://www.w3.org/2000/svg" version="1.1" xmlns:xlink="http://www.w3.org/1999/xlink" xmlns:svgjs="http://svgjs.com/svgjs" height="107.4615104675293" width="257.0500183105469"><defs id="SvgjsDefs1205"></defs><g id="SvgjsG1206" rel="mainfill" name="main_text" xmlns:name="main_text" transform="translate(-2.109999895095825,-132.5384895324707)" fill="#000000"><path d="M27.39 218.93Q27.39 217.16 26.17 215.94Q24.95 214.72 23.18 214.72L6.32 214.72L6.32 227.36L23.18 227.36Q24.95 227.36 26.17 226.14Q27.39 224.91 27.39 223.14L27.39 218.93M28.61 240L20.18 231.57L6.32 231.57L6.32 240L2.11 240L2.11 210.50L23.18 210.50Q24.82 210.50 26.36 211.16Q27.90 211.81 29.06 212.95Q30.21 214.08 30.91 215.62Q31.60 217.16 31.60 218.93L31.60 223.14Q31.60 224.49 31.18 225.74Q30.76 226.98 29.98 228.03Q29.20 229.09 28.13 229.91Q27.05 230.73 25.75 231.15L31.60 237.01L31.60 240L28.61 240ZM39.61 223.14L60.68 223.14L60.68 227.36L39.61 227.36L39.61 235.79L64.89 235.79L64.89 240L35.40 240L35.40 210.50L64.89 210.50L64.89 214.72L39.61 214.72L39.61 223.14ZM93.55 218.93Q93.55 217.16 92.33 215.94Q91.11 214.72 89.34 214.72L72.48 214.72L72.48 227.36L89.34 227.36Q91.11 227.36 92.33 226.14Q93.55 224.91 93.55 223.14L93.55 218.93M97.76 223.14Q97.76 224.83 97.11 226.35Q96.46 227.86 95.32 229.02Q94.18 230.18 92.64 230.88Q91.11 231.57 89.34 231.57L72.48 231.57L72.48 240L68.27 240L68.27 210.50L89.34 210.50Q91.02 210.50 92.54 211.16Q94.06 211.81 95.19 212.95Q96.33 214.08 97.03 215.62Q97.72 217.16 97.76 218.93L97.76 223.14ZM126.00 218.93Q126.00 217.16 124.77 215.94Q123.55 214.72 121.78 214.72L109.14 214.72Q107.37 214.72 106.15 215.94Q104.93 217.16 104.93 218.93L104.93 231.57Q104.93 233.34 106.15 234.56Q107.37 235.79 109.14 235.79L121.78 235.79Q123.55 235.79 124.77 234.56Q126.00 233.34 126.00 231.57L126.00 218.93M130.21 231.57Q130.21 233.30 129.54 234.84Q128.86 236.38 127.72 237.51Q126.59 238.65 125.05 239.33Q123.51 240 121.78 240L109.14 240Q107.37 240 105.83 239.35Q104.29 238.69 103.16 237.56Q102.02 236.42 101.37 234.88Q100.71 233.34 100.71 231.57L100.71 218.93Q100.71 217.20 101.39 215.66Q102.06 214.13 103.20 212.99Q104.34 211.85 105.88 211.18Q107.41 210.50 109.14 210.50L121.78 210.50Q123.47 210.50 124.99 211.18Q126.50 211.85 127.66 212.99Q128.82 214.13 129.52 215.66Q130.21 217.20 130.21 218.93L130.21 231.57ZM159.29 218.93Q159.29 217.16 158.06 215.94Q156.84 214.72 155.07 214.72L138.22 214.72L138.22 227.36L155.07 227.36Q156.84 227.36 158.06 226.14Q159.29 224.91 159.29 223.14L159.29 218.93M160.51 240L152.08 231.57L138.22 231.57L138.22 240L134.00 240L134.00 210.50L155.07 210.50Q156.72 210.50 158.25 211.16Q159.79 211.81 160.95 212.95Q162.11 214.08 162.81 215.62Q163.50 217.16 163.50 218.93L163.50 223.14Q163.50 224.49 163.08 225.74Q162.66 226.98 161.88 228.03Q161.10 229.09 160.02 229.91Q158.95 230.73 157.64 231.15L163.50 237.01L163.50 240L160.51 240ZM182.04 214.72L182.04 240L177.83 240L177.83 214.72L165.19 214.72L165.19 210.50L194.68 210.50L194.68 214.72L182.04 214.72ZM201.00 223.14L222.07 223.14L222.07 227.36L201.00 227.36L201.00 235.79L226.29 235.79L226.29 240L196.79 240L196.79 210.50L226.29 210.50L226.29 214.72L201.00 214.72L201.00 223.14ZM254.94 218.93Q254.94 217.16 253.72 215.94Q252.50 214.72 250.73 214.72L233.87 214.72L233.87 227.36L250.73 227.36Q252.50 227.36 253.72 226.14Q254.94 224.91 254.94 223.14L254.94 218.93M256.17 240L247.74 231.57L233.87 231.57L233.87 240L229.66 240L229.66 210.50L250.73 210.50Q252.37 210.50 253.91 211.16Q255.45 211.81 256.61 212.95Q257.77 214.08 258.46 215.62Q259.16 217.16 259.16 218.93L259.16 223.14Q259.16 224.49 258.74 225.74Q258.31 226.98 257.53 228.03Q256.76 229.09 255.68 229.91Q254.61 230.73 253.30 231.15L259.16 237.01L259.16 240L256.17 240Z" fill="#000000" style="fill: rgb(0, 0, 0);"></path></g><g id="SvgjsG1207" rel="mainfill" name="symbol" xmlns:name="symbol_mainfill" transform="translate(93.39750089645386,-3.6595997810363765) scale(0.7)" fill="#9A95C1"><circle cx="50.0115967" cy="33.1982651" r="10.2745008"></circle><ellipse transform="matrix(-0.5843659 0.8114903 -0.8114903 -0.5843659 119.237587 -19.6136875)" cx="64.6417236" cy="20.7290764" rx="6.1090407" ry="8.8314695"></ellipse><path d="M72.8996124,17.3064728c2.666748,1.8195763,5.6057663,2.1586323,6.5647583,0.7546539  c0.9620514-1.4055042-0.4176102-4.0253134-3.0801086-5.8463621c-2.6683884-1.8216496-5.6058807-2.1593409-6.5692368-0.7531281  C68.8558197,12.865778,70.2355881,15.4839516,72.8996124,17.3064728z" fill="#9A95C1" style="fill: rgb(154, 149, 193);"></path><path d="M49.3540955,12.865778c3.996582,0.0536461,7.260643-1.6115322,7.2899742-3.7149906  c0.0280228-2.1086378-3.1875191-3.8656812-7.1811562-3.9215636c-3.9994164-0.0528288-7.260643,1.6108232-7.2929192,3.7207694  C42.1449165,11.0542145,45.3589287,12.8120222,49.3540955,12.865778z" fill="#9A95C1" style="fill: rgb(154, 149, 193);"></path><path d="M28.1121197,25.9784546c1.9710865,2.7381706,6.7795658,2.6455421,10.7365665-0.2029209  c3.9597282-2.8522243,5.5688057-7.3804779,3.5978317-10.1201744c-1.9740334-2.7389879-6.7810936-2.6461964-10.7378788,0.2045565  C27.7488041,18.706852,26.139616,23.2388668,28.1121197,25.9784546z" fill="#9A95C1" style="fill: rgb(154, 149, 193);"></path><path d="M27.2193146,17.5947704c2.6653328-1.8231211,4.0451031-4.4406958,3.0860023-5.8456001  c-0.96488-1.4060488-3.9023724-1.0677576-6.5678158,0.7531281c-2.663805,1.8218126-4.0435772,4.4401493-3.0816402,5.847126  C21.6149616,19.7534008,24.5538712,19.4143467,27.2193146,17.5947704z" fill="#9A95C1" style="fill: rgb(154, 149, 193);"></path><circle cx="33.178833" cy="50.031002" r="10.2750406"></circle><ellipse transform="matrix(-0.811483 0.584376 -0.584376 -0.811483 75.3010483 105.0289764)" cx="20.7095947" cy="64.6603699" rx="6.1096339" ry="8.8321218"></ellipse><path d="M11.5096169,69.7685776c-1.4062672,0.9626389-1.0694485,3.9008942,0.7531281,6.5677032  c1.8210487,2.663208,4.4391689,4.042923,5.8454361,3.0810394c1.4034309-0.9591522,1.0650864-3.8980103-0.7546558-6.5648117  C15.531168,70.1877747,12.9128313,68.8095856,11.5096169,69.7685776z" fill="#9A95C1" style="fill: rgb(154, 149, 193);"></path><path d="M12.8467541,49.3739357c-0.0545197-3.9959259-1.8124352-7.2099419-3.9156761-7.1842079  c-2.1108727,0.032383-3.7745795,3.2934494-3.7201691,7.2922096c0.0545192,3.9936943,1.812326,7.2092323,3.9215631,7.1819725  C11.2359304,56.6345253,12.9010553,53.3697548,12.8467541,49.3739357z" fill="#9A95C1" style="fill: rgb(154, 149, 193);"></path><path d="M15.6355181,42.4655418c2.7404604,1.9718475,7.2679491,0.3619499,10.1217012-3.597229  c2.8477535-3.9574928,2.9404354-8.7660828,0.2013931-10.7371693c-2.7403507-1.9717941-7.2708931-0.3625526-10.1185389,3.5964661  C12.9893761,35.685318,12.8980017,40.4923286,15.6355181,42.4655418z" fill="#9A95C1" style="fill: rgb(154, 149, 193);"></path><path d="M17.5757465,27.2389927c1.8181038-2.6660423,2.1578674-5.6050606,0.7531281-6.5640545  c-1.4062672-0.9612808-4.0244961,0.4178352-5.8454361,3.0816422c-1.8211584,2.6654415-2.1593952,5.6042976-0.7532368,6.5671062  C13.1335249,31.2826786,15.7517529,29.9044876,17.5757465,27.2389927z" fill="#9A95C1" style="fill: rgb(154, 149, 193);"></path><path d="M57.6163635,74.4690018c4.0113029-4.0120697,4.0143547-10.5195312,0.0030556-14.5323067  c-4.0128288-4.0126648-10.5217628-4.0105362-14.5343742,0.0015297c-4.0128288,4.0127716-4.0113029,10.5187073,0.0013084,14.5315399  C47.0991821,78.4817734,53.603756,78.4817734,57.6163635,74.4690018z" fill="#9A95C1" style="fill: rgb(154, 149, 193);"></path><ellipse transform="matrix(0.5844578 -0.8114241 0.8114241 0.5844578 -49.8044281 62.093277)" cx="35.722168" cy="79.6728821" rx="6.1095729" ry="8.8321686"></ellipse><path d="M27.5296364,83.0283966c-2.6668587-1.819519-5.6058788-2.158577-6.5648708-0.7546005  c-0.9620438,1.4062119,0.4178352,4.0252609,3.0816422,5.8463669c2.6668587,1.8218079,5.604351,2.1593399,6.5679226,0.7538376  C31.5733242,87.4693146,30.1936607,84.850975,27.5296364,83.0283966z" fill="#9A95C1" style="fill: rgb(154, 149, 193);"></path><path d="M51.0073318,87.5353851c-3.9949455-0.0535889-7.2604256,1.6114273-7.2883377,3.7156448  c-0.0280228,2.1078262,3.1875153,3.8656311,7.1810455,3.9207458c3.999527,0.0530472,7.2591171-1.6098404,7.2916107-3.7199478  C58.2180367,89.3476028,55.0039139,87.589798,51.0073318,87.5353851z" fill="#9A95C1" style="fill: rgb(154, 149, 193);"></path><path d="M72.2508316,74.4233627c-1.9710846-2.7388229-6.7795639-2.6461945-10.7378731,0.2030334  c-3.9583092,2.8514633-5.5676079,7.3804779-3.5949936,10.1200638c1.9725037,2.7381744,6.7780418,2.6463089,10.7363472-0.2051544  C72.614151,81.695076,74.2233353,77.163063,72.2508316,74.4233627z" fill="#9A95C1" style="fill: rgb(154, 149, 193);"></path><path d="M73.0980606,82.7622375c-2.665329,1.8231735-4.04216,4.4415131-3.0829468,5.8454895  c0.961937,1.4062119,3.9008484,1.0679169,6.5661774-0.7531281c2.6639175-1.8210526,4.04216-4.4399872,3.0816422-5.846199  C78.7039413,80.6042557,75.7649231,80.9433136,73.0980606,82.7622375z" fill="#9A95C1" style="fill: rgb(154, 149, 193);"></path><circle cx="67.1842041" cy="50.3700562" r="10.2750788"></circle><path d="M84.6096725,32.1704674c-2.8461151-3.9597797-7.3781815-5.5690765-10.1171188-3.5964642  c-2.7388229,1.9710846-2.6476669,6.7788563,0.2030258,10.7379322c2.8508072,3.9567261,7.3812408,5.5682602,10.1200714,3.5956993  C87.5545807,40.9350243,87.4618988,36.1280136,84.6096725,32.1704674z" fill="#9A95C1" style="fill: rgb(154, 149, 193);"></path><path d="M88.921051,30.5670605c1.4062653-0.9634094,1.0679245-3.9016094-0.7545471-6.56847  c-1.8209381-2.6631508-4.4392776-4.04216-5.8455429-3.0808773c-1.4033203,0.9590473-1.0648651,3.8980656,0.7546539,6.5648708  C84.8979721,30.1471539,87.5164185,31.5253429,88.921051,30.5670605z" fill="#9A95C1" style="fill: rgb(154, 149, 193);"></path><path d="M91.2320099,43.738018c-2.103569,0.0286217-3.768692,3.2934494-3.7155914,7.2892113  c0.0529938,3.9965286,1.8121109,7.2105408,3.9155655,7.1840439c2.110878-0.0322189,3.7744751-3.2926292,3.7214813-7.2922096  C95.0976334,46.9255333,93.3398285,43.7099953,91.2320099,43.738018z" fill="#9A95C1" style="fill: rgb(154, 149, 193);"></path><path d="M74.4043427,72.2698593c2.7389297,1.9726105,7.2708893,0.3633118,10.1171188-3.5964661  c2.8508072-3.95755,2.9449081-8.7637939,0.2059784-10.7371674c-2.7403564-1.9717941-7.269371-0.3617897-10.1200714,3.597229  C71.7580872,65.4909973,71.6655197,70.2995377,74.4043427,72.2698593z" fill="#9A95C1" style="fill: rgb(154, 149, 193);"></path><path d="M82.7431564,73.1186676c-1.819519,2.6652756-2.1579742,5.6050034-0.7545471,6.5640564  c1.4061584,0.9612808,4.0259171-0.4184418,5.8468552-3.0824051c1.8211594-2.6652832,2.1593933-5.6035385,0.7532349-6.5669479  C87.1838531,69.074379,84.5656204,70.4525681,82.7431564,73.1186676z" fill="#9A95C1" style="fill: rgb(154, 149, 193);"></path></g></svg>