<svg><rect id="background" fill="#FFF" x="0" y="0" width="500" height="500"></rect><g id="Group" transform="translate(40.000000, 309.000000)"><rect id="Rectangle-82" x="0" y="0" width="420" height="45"></rect><text id="headerText" font-family="Roboto Mono" font-size="40" font-weight="700" line-spacing="40" letter-spacing="4" fill="#000" data-text-alignment="C" font-style="normal"><tspan x="99.984375" y="33.5">Reporter</tspan></text></g><g id="Group-2" transform="translate(40.000000, 362.000000)"><rect id="Rectangle" x="0" y="0" width="420" height="32"></rect><text id="captionText" font-family="Roboto Mono" font-size="20.092689490207803" font-weight="300" letter-spacing="1.6074151592166244" fill="#000" data-text-alignment="C" font-style="normal"><tspan x="5.6328125" y="21.5">Your Customer managment system</tspan></text></g><g id="shape" transform="translate(149.000000, 109.000000)"><polygon id="shape.secondary" fill-opacity=".02" fill="#645fce" points="85.089 99.343 85.089 79.769 94.916 89.557"></polygon><polygon id="shape.secondary" fill-opacity=".6" fill="#645fce" points="116.912 168 85.658 168 85.658 115.861 116.912 84.736"></polygon><polygon id="shape.secondary" fill-opacity=".8" fill="#645fce" points="159.455 168 128.201 168 128.201 80.341 159.455 49.217"></polygon><polygon id="shape.secondary" fill="#645fce" points="202 168 170.746 168 170.746 31.123 202 0"></polygon><polygon id="shape.secondary" fill-opacity=".4" fill="#645fce" points="74.367 127.105 74.367 168 33.301 168"></polygon><polygon id="shape.secondary" fill-opacity=".5" fill="#645fce" points="130.037 0 101 28.917 71.963 0"></polygon><polygon id="shape.primary" fill-opacity=".5" fill="#40356f" points="130.037 0 101 28.917 71.963 0"></polygon><polygon id="shape.primary" fill-opacity=".8" fill="#40356f" points="42.545 140.47 42.545 43.008 73.799 74.132 73.799 109.346"></polygon><polygon id="shape.primary" fill-opacity=".6" fill="#40356f" points="85.089 99.343 85.089 79.769 94.916 89.557"></polygon><polygon id="shape.primary" fill="#40356f" points="21.134 168 0 168 0 0 31.254 31.123 31.254 157.923"></polygon><polygon id="shape.primary" fill-opacity=".6" fill="#40356f" points="74.367 127.105 74.367 168 33.301 168"></polygon></g></svg>